<svg xmlns="http://www.w3.org/2000/svg" width="636" height="440" viewBox="0 0 636 440">
<style>
text { font-family: 'DejaVu Sans Mono', monospace; fill: #111827; }
.title { font-size: 20px; font-weight: 700; }
.panel-title { font-size: 14px; font-weight: 700; }
.axis-label { font-size: 13px; font-weight: 700; }
.tick { font-size: 11px; }
.legend { font-size: 11px; }
.panel { fill: #ffffff; stroke: #d1d5db; stroke-width: 1; }
.plot-bg { fill: #f9fafb; }
.grid { stroke: #e5e7eb; stroke-width: 1; }
.axis { stroke: #111827; stroke-width: 1.25; }
</style>
<rect x="0" y="0" width="636" height="440" fill="#f3f4f6" />
<text class="title" x="318.0" y="30" text-anchor="middle">Shared KV Multi-Thread Throughput</text>
<text class="axis-label" x="318.0" y="424" text-anchor="middle">threads</text>
<text class="axis-label" x="16" y="220.0" transform="rotate(-90 16 220.0)" text-anchor="middle">read_ops (M)</text>
<text class="axis-label" x="620" y="220.0" transform="rotate(90 620 220.0)" text-anchor="middle">write_ops (M)</text>
<rect class="panel" x="28" y="60" width="580" height="320" rx="8" />
<text class="panel-title" x="44" y="88">Mixed95_5</text>
<rect class="plot-bg" x="90" y="114" width="290" height="210" rx="4" />
<line class="grid" x1="90" y1="324.0" x2="380" y2="324.0" />
<text class="tick" x="82" y="328.0" text-anchor="end">0</text>
<text class="tick" x="388" y="328.0" text-anchor="start">0</text>
<line class="grid" x1="90" y1="271.5" x2="380" y2="271.5" />
<text class="tick" x="82" y="275.5" text-anchor="end">14.3</text>
<text class="tick" x="388" y="275.5" text-anchor="start">0.75</text>
<line class="grid" x1="90" y1="219.0" x2="380" y2="219.0" />
<text class="tick" x="82" y="223.0" text-anchor="end">28.6</text>
<text class="tick" x="388" y="223.0" text-anchor="start">1.5</text>
<line class="grid" x1="90" y1="166.5" x2="380" y2="166.5" />
<text class="tick" x="82" y="170.5" text-anchor="end">42.8</text>
<text class="tick" x="388" y="170.5" text-anchor="start">2.25</text>
<line class="grid" x1="90" y1="114.0" x2="380" y2="114.0" />
<text class="tick" x="82" y="118.0" text-anchor="end">57.1</text>
<text class="tick" x="388" y="118.0" text-anchor="start">3.01</text>
<line class="grid" x1="90.0" y1="114" x2="90.0" y2="324" />
<text class="tick" x="90.0" y="342" text-anchor="middle">1</text>
<line class="grid" x1="99.4" y1="114" x2="99.4" y2="324" />
<text class="tick" x="99.4" y="342" text-anchor="middle">2</text>
<line class="grid" x1="118.1" y1="114" x2="118.1" y2="324" />
<text class="tick" x="118.1" y="342" text-anchor="middle">4</text>
<line class="grid" x1="155.5" y1="114" x2="155.5" y2="324" />
<text class="tick" x="155.5" y="342" text-anchor="middle">8</text>
<line class="grid" x1="230.3" y1="114" x2="230.3" y2="324" />
<text class="tick" x="230.3" y="342" text-anchor="middle">16</text>
<line class="grid" x1="305.2" y1="114" x2="305.2" y2="324" />
<text class="tick" x="305.2" y="342" text-anchor="middle">24</text>
<line class="grid" x1="380.0" y1="114" x2="380.0" y2="324" />
<text class="tick" x="380.0" y="342" text-anchor="middle">32</text>
<line class="axis" x1="90" y1="114" x2="90" y2="324" />
<line class="axis" x1="380" y1="114" x2="380" y2="324" />
<line class="axis" x1="90" y1="324" x2="380" y2="324" />
<line x1="438" y1="122" x2="454" y2="122" stroke="#111827" stroke-width="2.25" stroke-linecap="round" />
<text class="legend" x="462" y="126">read_ops</text>
<line x1="438" y1="140" x2="454" y2="140" stroke="#111827" stroke-width="2.25" stroke-linecap="butt" stroke-dasharray="10 6" />
<text class="legend" x="462" y="144">write_ops</text>
<polyline points="90.0,315.5 99.4,307.0 118.1,290.0 155.5,256.5 230.3,190.3 305.2,133.1 380.0,265.9" fill="none" stroke="#0f766e" stroke-width="2.25" stroke-linecap="round" stroke-linejoin="round" />
<polyline points="90.0,319.5 99.4,311.1 118.1,294.0 155.5,260.5 230.3,194.3 305.2,137.1 380.0,270.0" fill="none" stroke="#f9fafb" stroke-width="4.5" stroke-linecap="butt" stroke-linejoin="round" stroke-dasharray="10 6" />
<polyline points="90.0,319.5 99.4,311.1 118.1,294.0 155.5,260.5 230.3,194.3 305.2,137.1 380.0,270.0" fill="none" stroke="#0f766e" stroke-width="2.25" stroke-linecap="butt" stroke-linejoin="round" stroke-dasharray="10 6" />
<circle cx="90.0" cy="315.5" r="3.5" fill="#0f766e" stroke="#ffffff" stroke-width="1" />
<circle cx="99.4" cy="307.0" r="3.5" fill="#0f766e" stroke="#ffffff" stroke-width="1" />
<circle cx="118.1" cy="290.0" r="3.5" fill="#0f766e" stroke="#ffffff" stroke-width="1" />
<circle cx="155.5" cy="256.5" r="3.5" fill="#0f766e" stroke="#ffffff" stroke-width="1" />
<circle cx="230.3" cy="190.3" r="3.5" fill="#0f766e" stroke="#ffffff" stroke-width="1" />
<circle cx="305.2" cy="133.1" r="3.5" fill="#0f766e" stroke="#ffffff" stroke-width="1" />
<circle cx="380.0" cy="265.9" r="3.5" fill="#0f766e" stroke="#ffffff" stroke-width="1" />
<rect x="87.4" y="316.9" width="5.2" height="5.2" fill="#ffffff" stroke="#0f766e" stroke-width="1.4" />
<rect x="96.8" y="308.5" width="5.2" height="5.2" fill="#ffffff" stroke="#0f766e" stroke-width="1.4" />
<rect x="115.5" y="291.4" width="5.2" height="5.2" fill="#ffffff" stroke="#0f766e" stroke-width="1.4" />
<rect x="152.9" y="257.9" width="5.2" height="5.2" fill="#ffffff" stroke="#0f766e" stroke-width="1.4" />
<rect x="227.7" y="191.7" width="5.2" height="5.2" fill="#ffffff" stroke="#0f766e" stroke-width="1.4" />
<rect x="302.6" y="134.5" width="5.2" height="5.2" fill="#ffffff" stroke="#0f766e" stroke-width="1.4" />
<rect x="377.4" y="267.4" width="5.2" height="5.2" fill="#ffffff" stroke="#0f766e" stroke-width="1.4" />
<line x1="438" y1="180" x2="454" y2="180" stroke="#0f766e" stroke-width="2.25" stroke-linecap="round" />
<circle cx="446" cy="180" r="3" fill="#0f766e" stroke="#ffffff" stroke-width="1" />
<text class="legend" x="462" y="184">4000000/128/256</text>
</svg>
